<?xml version="1.0" standalone="no"?>
<!DOCTYPE svg PUBLIC "-//W3C//DTD SVG 20010904//EN"
 "http://www.w3.org/TR/2001/REC-SVG-20010904/DTD/svg10.dtd">
<svg version="1.0" xmlns="http://www.w3.org/2000/svg"
 width="512.000000pt" height="512.000000pt" viewBox="0 0 512.000000 512.000000"
 preserveAspectRatio="xMidYMid meet">
<svg xmlns="http://www.w3.org/2000/svg" viewBox="0 0 32 32">
  <style>
    :root {
      color: black;
    }
    @media (prefers-color-scheme: dark) {
      :root {
        color: white;
      }
    }
  </style>
  <path fill="currentColor" d="M16 8 L24 24 L8 24 Z" />
</svg>
<g transform="translate(0.000000,512.000000) scale(0.100000,-0.100000)"
fill="#000000" stroke="none">
<path d="M3739 4451 c-46 -47 -107 -91 -212 -154 -218 -131 -371 -250 -538
-416 -133 -133 -200 -214 -432 -515 -158 -205 -277 -397 -277 -447 -1 -22 -2
-22 -11 -6 -6 11 -8 35 -4 55 l6 37 -30 -35 c-58 -68 -124 -192 -162 -303 -22
-61 -39 -121 -39 -131 0 -19 0 -19 -13 -1 -8 10 -16 14 -19 9 -9 -15 -36 -145
-44 -209 -3 -33 -9 -64 -12 -70 -9 -15 -32 85 -32 145 -1 47 -2 52 -12 35 -7
-11 -12 -51 -11 -90 1 -66 9 -97 57 -220 8 -22 15 -58 14 -80 l0 -40 -7 37
c-4 20 -23 76 -42 125 -37 96 -51 88 -25 -13 8 -33 18 -81 21 -109 l7 -50 -20
30 c-19 31 -52 63 -52 51 0 -4 7 -21 16 -39 24 -45 21 -122 -7 -189 -13 -31
-73 -165 -134 -297 -99 -218 -111 -239 -125 -226 -9 8 -19 15 -22 15 -3 0 -8
-37 -10 -82 -7 -119 -50 -200 -122 -227 -27 -11 -28 -12 -12 -34 55 -74 57
-142 11 -296 -14 -47 -23 -86 -22 -88 2 -1 36 34 75 80 110 129 183 194 225
202 25 5 44 18 63 42 15 19 58 55 95 80 38 24 69 49 69 55 0 5 -12 33 -27 60
-27 49 -27 49 -8 84 39 73 186 188 289 225 20 7 35 18 33 24 -2 5 -29 25 -61
44 l-58 35 49 43 c26 23 95 75 153 115 58 39 123 85 144 102 39 30 126 139
126 158 0 6 -24 -12 -54 -40 -68 -61 -115 -84 -237 -111 -53 -12 -128 -38
-165 -57 -38 -19 -60 -32 -49 -29 11 4 52 8 90 11 l70 4 -81 -19 c-159 -38
-171 -50 -379 -398 -60 -100 -112 -180 -117 -177 -4 3 -13 22 -19 44 -11 37
-9 44 45 162 32 68 71 156 88 197 25 57 33 69 39 55 6 -15 8 -13 8 11 1 41
107 230 203 361 43 59 106 152 141 206 34 55 142 217 240 360 98 144 209 306
246 362 212 317 370 543 496 711 134 180 376 487 416 530 39 41 16 4 -53 -86
-341 -444 -404 -533 -910 -1284 -107 -159 -210 -312 -228 -339 -18 -27 -59
-102 -91 -167 -32 -66 -61 -119 -64 -119 -3 0 11 32 30 70 19 38 33 70 31 70
-9 0 -74 -124 -132 -250 -31 -69 -72 -158 -91 -199 -18 -40 -32 -75 -30 -77 2
-2 42 12 88 30 47 19 134 44 193 55 60 12 128 30 152 41 42 18 101 67 92 75
-2 3 -28 -5 -57 -16 -81 -30 -79 -19 5 31 76 45 220 182 209 199 -3 5 2 11 9
14 8 3 20 15 25 26 11 20 11 20 -46 0 -31 -10 -57 -18 -59 -17 -4 5 245 311
288 355 23 24 39 43 34 43 -9 0 -68 -42 -111 -79 l-29 -26 26 36 c53 71 297
453 293 457 -2 2 -21 -6 -42 -18 -46 -28 -46 -28 100 100 65 56 116 105 113
107 -2 2 -27 -7 -55 -21 -28 -14 -52 -26 -54 -26 -2 0 40 44 94 99 103 102
126 139 62 97 -38 -25 -113 -60 -113 -53 0 3 31 27 68 55 121 90 280 277 174
204 -15 -10 -45 -29 -67 -42 l-40 -23 40 34 c67 57 113 111 145 170 16 31 30
60 30 64 0 3 -21 -11 -47 -31 l-48 -38 51 55 c51 54 75 91 88 139 7 22 3 20
-29 -15 -35 -38 -35 -38 -12 -5 34 49 52 87 71 149 14 49 14 52 -1 40 -14 -13
-14 -10 1 19 9 18 19 45 21 60 6 50 33 156 60 237 31 92 54 166 52 164 -1 -1
-31 -31 -68 -68z m-118 -168 c-5 -10 -46 -63 -91 -118 -44 -55 -124 -155 -178
-222 -53 -67 -98 -120 -100 -119 -1 2 2 15 8 30 6 18 6 25 0 21 -6 -3 -10 -13
-10 -21 0 -8 -4 -14 -8 -14 -5 0 -17 -18 -27 -40 -10 -22 -22 -37 -28 -33 -7
4 -8 -1 -3 -13 4 -10 4 -15 0 -11 -9 9 -40 -27 -76 -90 -16 -29 -31 -53 -33
-53 -2 0 -1 48 1 108 l4 107 -19 -109 c-15 -81 -30 -129 -58 -185 l-38 -76 -5
49 -5 49 -18 -81 c-18 -80 -42 -127 -31 -60 l5 33 -17 -30 c-10 -16 -25 -55
-35 -85 -14 -46 -17 -50 -18 -25 l-2 30 -16 -30 c-9 -16 -27 -55 -41 -85 l-23
-55 6 59 c3 33 3 58 0 55 -3 -3 -23 -57 -45 -120 -27 -75 -39 -100 -36 -74 4
36 3 38 -7 15 -6 -14 -24 -52 -39 -85 l-28 -60 -1 50 0 50 -33 -95 c-45 -134
-47 -135 -42 -40 4 84 4 84 -10 41 -7 -25 -16 -70 -20 -100 -5 -38 -9 -50 -14
-37 -8 25 -14 14 -30 -54 -24 -106 -31 -90 -27 60 6 168 -7 151 -25 -35 -6
-66 -13 -122 -15 -125 -2 -2 -8 2 -13 10 -7 11 -10 3 -10 -27 0 -60 -20 -66
-21 -6 -2 48 -2 47 -14 -22 -7 -40 -13 -57 -14 -40 -1 17 -6 37 -11 45 -7 11
-10 0 -10 -37 0 -75 -14 -101 -20 -38 l-6 50 -10 -75 -10 -75 -18 78 c-14 59
-17 107 -14 205 4 167 21 199 37 73 6 -49 14 -97 17 -106 12 -31 24 -13 24 38
0 28 6 75 14 102 16 56 92 233 123 282 l19 32 -2 -54 c-2 -59 10 -74 21 -24
14 64 60 158 127 262 39 59 71 107 73 107 1 0 0 -19 -2 -42 -3 -24 0 -54 5
-67 8 -22 11 -17 31 49 28 92 59 154 125 249 l51 75 5 -35 5 -34 39 72 c82
154 338 383 611 545 44 26 81 48 83 48 1 0 -2 -8 -7 -17z m-116 -333 c-11 -5
-27 -9 -35 -9 -9 0 -8 4 5 9 11 5 27 9 35 9 9 0 8 -4 -5 -9z m-15 -30 c-8 -5
-24 -9 -35 -9 l-20 0 20 9 c11 5 27 9 35 9 13 1 13 0 0 -9z m-10 -49 c-8 -5
-31 -11 -50 -14 -35 -6 -35 -6 5 8 46 15 67 18 45 6z m-70 -46 c-46 -18 -64
-17 -25 0 17 8 37 14 45 14 8 0 -1 -7 -20 -14z m30 -19 c0 -6 -93 -37 -97 -32
-2 2 15 11 39 19 47 17 58 19 58 13z m-45 -60 c-81 -31 -124 -41 -108 -26 12
13 126 49 153 49 8 0 -12 -11 -45 -23z m15 -31 c0 -2 -30 -14 -67 -25 -38 -12
-75 -24 -83 -26 -8 -3 -6 0 5 7 18 12 120 47 138 48 4 1 7 -1 7 -4z m-10 -39
c0 -6 -168 -66 -183 -66 -21 1 26 23 98 46 73 24 85 27 85 20z m-32 -51 c-10
-10 -212 -85 -216 -80 -2 2 16 14 40 26 63 32 195 73 176 54z m-93 -92 c-36
-20 -165 -73 -174 -72 -12 1 174 89 189 88 8 0 2 -7 -15 -16z m15 -43 c-23
-18 -217 -100 -237 -100 -20 0 71 47 157 81 113 44 112 44 80 19z m-85 -100
c-101 -46 -205 -89 -205 -85 0 12 209 104 235 104 6 0 -8 -9 -30 -19z m-1 -40
c-14 -14 -236 -122 -241 -117 -8 8 98 70 170 98 81 32 85 33 71 19z m-34 -86
c0 -3 -39 -23 -87 -45 -49 -22 -114 -54 -145 -70 -32 -17 -58 -28 -58 -25 0
15 119 82 197 112 100 38 93 36 93 28z m-71 -78 c-2 -2 -61 -31 -132 -65 -126
-59 -159 -66 -71 -15 62 36 223 100 203 80z m-34 -65 c-16 -13 -156 -105 -205
-133 -50 -29 -130 -64 -115 -50 22 19 194 129 250 159 58 32 89 42 70 24z
m-55 -95 c0 -9 -132 -88 -200 -120 -134 -62 -128 -49 10 25 74 39 144 78 155
85 19 14 35 18 35 10z m-85 -112 c-57 -44 -259 -134 -272 -121 -2 2 36 22 84
43 47 22 112 51 142 66 65 31 73 33 46 12z m15 -38 c0 -12 -127 -79 -220 -116
-58 -23 -108 -44 -112 -47 -5 -2 -8 -2 -8 0 0 10 93 59 156 83 36 13 91 37
122 54 63 32 62 32 62 26z m-50 -91 c0 -17 -326 -152 -338 -140 -3 3 -1 5 4 5
6 0 21 10 34 23 14 12 25 21 25 20 0 -5 44 10 155 52 63 24 116 44 118 44 1 1
2 -1 2 -4z m-691 -230 c11 -31 23 -77 26 -103 5 -46 1 -43 -21 13 -6 15 -10 6
-14 -35 -5 -55 -5 -55 -17 -25 -12 30 -12 30 -12 -15 1 -90 -4 -93 -17 -10
-18 124 -17 256 3 321 l17 54 8 -72 c4 -39 16 -97 27 -128z m585 125 c-11 -11
-240 -115 -274 -124 -14 -4 0 7 30 23 52 28 53 30 20 25 -19 -3 21 14 90 39
136 48 149 52 134 37z m-29 -69 c-28 -27 -289 -141 -322 -141 -22 0 52 37 179
89 157 65 156 65 143 52z m-642 -131 c23 -159 29 -222 17 -185 -25 76 -53 312
-36 294 3 -2 11 -51 19 -109z m622 71 c-28 -26 -336 -171 -364 -171 -2 0 7 9
21 19 13 11 83 44 156 75 73 30 144 62 159 70 32 18 41 20 28 7z m-641 -264
c8 -96 -2 -89 -33 23 -22 80 -28 147 -11 120 8 -12 10 -8 11 15 2 50 26 -63
33 -158z m556 168 c0 -8 -137 -74 -218 -106 -86 -33 -82 -32 -82 -21 0 10 126
66 298 131 1 1 2 -1 2 -4z m-55 -74 c-16 -16 -127 -68 -183 -86 -95 -31 -65
-9 45 33 60 23 115 46 123 52 19 12 27 13 15 1z m-531 -231 c-5 -47 -8 -52
-15 -31 -5 13 -11 71 -14 130 l-5 106 21 -75 c14 -55 18 -90 13 -130z m516
175 c0 -16 -251 -115 -291 -115 -30 0 12 19 116 54 61 20 124 43 140 51 37 17
35 16 35 10z m-556 -185 l6 -75 -14 70 c-8 39 -14 97 -14 130 l1 60 8 -55 c4
-30 10 -89 13 -130z m526 135 c0 -17 -237 -106 -278 -104 -9 0 35 18 98 38 63
21 129 45 145 54 34 18 35 19 35 12z m-115 -101 c-63 -30 -181 -66 -203 -62
-15 3 218 86 243 86 6 0 -12 -10 -40 -24z m225 -24 c-25 -22 -76 -56 -115 -75
-50 -26 -62 -30 -41 -13 31 24 187 126 196 127 3 0 -15 -17 -40 -39z m-240
-24 c0 -8 -221 -78 -227 -72 -7 7 10 14 122 47 97 29 105 31 105 25z m-15 -44
c-12 -10 -139 -59 -203 -78 -91 -28 -24 7 89 45 129 45 126 44 114 33z m-87
-77 c-9 -9 -172 -64 -177 -59 -7 7 0 10 79 37 72 24 109 33 98 22z m-113 -75
c-3 -5 -12 -10 -18 -10 -7 0 -6 4 3 10 19 12 23 12 15 0z m-80 -256 c-30 -12
-106 -32 -100 -26 10 11 68 30 90 30 11 0 16 -1 10 -4z m-10 -163 c15 -6 7 -9
-30 -15 -71 -9 -141 -53 -220 -138 l-69 -73 52 76 c58 84 92 120 137 143 32
17 96 20 130 7z m-325 -257 c-16 -42 -12 -71 17 -104 l26 -32 -38 16 c-20 9
-39 16 -41 16 -11 0 -1 56 16 90 23 45 35 53 20 14z m-150 -163 c-21 -47 -74
-131 -83 -131 -5 0 -22 9 -38 21 l-29 20 35 33 c40 38 85 127 85 171 1 24 5
19 21 -29 17 -48 18 -65 9 -85z m123 -2 c43 -12 47 -21 13 -37 -13 -6 -37 -28
-52 -49 -38 -52 -53 -63 -86 -63 l-28 0 21 42 c33 65 70 118 83 118 6 0 28 -5
49 -11z m-174 -205 c3 -2 -74 -108 -100 -138 -4 -4 5 30 19 76 27 84 27 85 52
75 14 -6 27 -12 29 -13z"/>
<path d="M2771 3294 c0 -11 3 -14 6 -6 3 7 2 16 -1 19 -3 4 -6 -2 -5 -13z"/>
<path d="M3761 3063 c-1 -6 -4 -20 -7 -30 -5 -17 -5 -17 6 0 6 10 9 23 6 30
-3 9 -5 9 -5 0z"/>
<path d="M3763 2955 c0 -22 2 -30 4 -17 2 12 2 30 0 40 -3 9 -5 -1 -4 -23z"/>
<path d="M3767 2755 c-10 -254 -41 -386 -132 -570 -82 -165 -212 -304 -420
-447 -44 -30 -102 -68 -129 -83 l-48 -28 64 104 c36 57 93 147 127 199 110
169 217 413 236 535 3 22 -6 2 -20 -45 -37 -124 -129 -302 -251 -490 -59 -91
-128 -202 -152 -248 -24 -46 -54 -89 -66 -97 -11 -7 -106 -59 -211 -115 -104
-56 -182 -99 -173 -96 9 2 35 10 57 16 22 6 91 33 152 60 62 27 114 48 116 46
9 -8 -129 -123 -225 -187 -57 -38 -100 -69 -97 -69 31 0 227 126 350 225 55
45 165 130 245 190 336 254 484 463 561 795 19 81 38 394 27 445 -2 11 -7 -52
-11 -140z"/>
<path d="M3471 2524 c0 -11 3 -14 6 -6 3 7 2 16 -1 19 -3 4 -6 -2 -5 -13z"/>
<path d="M2086 2003 c-6 -14 -5 -15 5 -6 7 7 10 15 7 18 -3 3 -9 -2 -12 -12z"/>
<path d="M2045 1930 c-14 -27 -25 -53 -25 -57 0 -11 40 55 51 84 15 40 0 25
-26 -27z"/>
<path d="M3500 1861 c-64 -66 -144 -133 -245 -204 -82 -59 -217 -159 -298
-224 -260 -206 -346 -269 -420 -307 -88 -46 -42 -38 57 9 96 45 214 126 501
340 251 188 387 312 463 423 24 34 42 62 40 61 -2 0 -46 -45 -98 -98z"/>
<path d="M1995 1829 c-4 -6 -5 -12 -2 -15 2 -3 7 2 10 11 7 17 1 20 -8 4z"/>
<path d="M1923 1658 c-23 -30 -24 -41 -2 -21 12 12 20 25 17 28 -3 3 -10 0
-15 -7z"/>
<path d="M1830 1584 c0 -18 26 -47 39 -43 8 3 3 13 -13 28 -14 14 -26 20 -26
15z"/>
<path d="M1827 1513 c-4 -3 -7 -11 -7 -17 0 -6 5 -5 12 2 6 6 9 14 7 17 -3 3
-9 2 -12 -2z"/>
<path d="M1410 560 c-25 -4 68 -7 205 -8 138 0 261 4 275 8 31 10 -417 10
-480 0z"/>
</g>
</svg>